<svg width="291" height="90" viewBox="0 0 291 90" preserveAspectRatio="xMidYMid meet" fill="none" xmlns="http://www.w3.org/2000/svg">
<path fill-rule="evenodd" clip-rule="evenodd" d="M0 0V89.6H40.704C50.432 89.6 59.008 87.7653 66.432 84.096C73.856 80.3413 79.6587 75.136 83.84 68.48C85.8819 65.188 87.4252 61.6212 88.47 57.7796V89.6H109.206V64.64H127.255C127.581 64.64 127.906 64.6379 128.229 64.6336L145.431 89.6H163.102V59.442H172.15V89.6H177.732V56.96H219.204V40.32H177.732V16.896H182.5H209.5H240.65V89.6H261.385V16.896H290.057V0H156.995V9.81002C154.468 7.44914 151.467 5.5018 147.991 3.96801C142.188 1.32267 135.275 0 127.255 0H88.47V31.7564C87.4252 27.9159 85.8819 24.3704 83.84 21.12C79.6587 14.464 73.856 9.30134 66.432 5.63201C59.008 1.87734 50.432 0 40.704 0H0ZM162.974 47.0937C162.651 47.5116 162.408 47.9653 162.246 48.4547C162.082 48.9487 162 49.4791 162 50.046C162 51.4767 162.522 52.6753 163.566 53.642C164.61 54.6087 165.963 55.092 167.626 55.092C169.327 55.092 170.681 54.6087 171.686 53.642C172.73 52.6367 173.252 51.38 173.252 49.872C173.252 48.4413 172.73 47.2813 171.686 46.392C170.642 45.464 169.289 45 167.626 45C165.963 45 164.61 45.4833 163.566 46.45C163.345 46.6542 163.148 46.8688 162.974 47.0937ZM156.995 55.004C154.468 57.3342 151.467 59.2662 147.991 60.8C147.932 60.8258 147.874 60.8514 147.815 60.877L156.995 74.0515V55.004ZM109.206 48.128H126.103C132.503 48.128 137.281 46.7627 140.439 44.032C143.596 41.216 145.174 37.376 145.174 32.512C145.174 27.5627 143.596 23.7227 140.439 20.992C137.281 18.2613 132.503 16.896 126.103 16.896H109.206V48.128ZM39.68 72.576H20.736V17.024H39.68C45.6533 17.024 50.816 18.176 55.168 20.48C59.6053 22.6987 63.0187 25.8987 65.408 30.08C67.8827 34.176 69.12 39.0827 69.12 44.8C69.12 50.432 67.8827 55.3387 65.408 59.52C63.0187 63.7013 59.6053 66.944 55.168 69.248C50.816 71.4667 45.6533 72.576 39.68 72.576Z" fill="black"/>
</svg>
