<svg viewBox="0 0 559 279" fill="none" xmlns="http://www.w3.org/2000/svg">
<path fill-rule="evenodd" clip-rule="evenodd" d="M0 0V173H78.4449C97.1928 173 113.72 169.458 128.028 162.373C142.336 155.123 153.519 145.073 161.577 132.221C165.512 125.865 168.486 118.978 170.5 111.561V173H210.463V124.807H245.245C245.875 124.807 246.501 124.803 247.124 124.795L280.274 173H314.331V114.771H331.768V173H342.525V109.979H422.45V77.85H342.525V32.6229H351.715H403.749H463.781V173H503.743V32.6229H559V0H302.562V18.9412C297.692 14.3828 291.907 10.6229 285.208 7.66144C274.024 2.55381 260.703 0 245.245 0H170.5V61.3154C168.486 53.9 165.512 47.0545 161.577 40.7786C153.519 27.9272 142.336 17.9591 128.028 10.8743C113.72 3.62477 97.1928 0 78.4449 0H0ZM314.085 90.9287C313.462 91.7356 312.994 92.6115 312.681 93.5565C312.365 94.5103 312.207 95.5345 312.207 96.629C312.207 99.3913 313.213 101.706 315.225 103.572C317.237 105.439 319.845 106.372 323.05 106.372C326.328 106.372 328.936 105.439 330.874 103.572C332.886 101.631 333.892 99.2047 333.892 96.293C333.892 93.5307 332.886 91.291 330.874 89.5738C328.862 87.782 326.254 86.8862 323.05 86.8862C319.845 86.8862 317.237 87.8194 315.225 89.6858C314.8 90.0801 314.42 90.4944 314.085 90.9287ZM302.562 106.202C297.692 110.701 291.907 114.431 285.208 117.393C285.095 117.443 284.982 117.492 284.869 117.541L302.562 142.979V106.202ZM210.463 92.9257H243.025C255.359 92.9257 264.568 90.2896 270.654 85.0171C276.738 79.58 279.781 72.1657 279.781 62.7743C279.781 53.2182 276.738 45.8039 270.654 40.5314C264.568 35.259 255.359 32.6229 243.025 32.6229H210.463V92.9257ZM76.4715 140.13H39.9625V32.87H76.4715C87.9832 32.87 97.9328 35.0943 106.32 39.5429C114.872 43.8267 121.45 50.0053 126.055 58.0786C130.824 65.9871 133.208 75.461 133.208 86.5C133.208 97.3743 130.824 106.848 126.055 114.921C121.45 122.995 114.872 129.256 106.32 133.704C97.9328 137.988 87.9832 140.13 76.4715 140.13Z" fill="black"/>
<path d="M0.5 278.357V210.888H9.62605V229.265L8.68661 226.052C10.6549 220.912 13.9654 217.013 18.6179 214.357C23.2704 211.616 29.0413 210.245 35.9306 210.245V219.112C35.5727 219.112 35.2148 219.112 34.8569 219.112C34.4991 219.027 34.1411 218.984 33.7833 218.984C26.3571 218.984 20.5416 221.169 16.3364 225.538C12.1312 229.822 10.0287 235.948 10.0287 243.916V278.357H0.5ZM94.6691 279C87.3325 279 80.8905 277.543 75.3433 274.631C69.7961 271.632 65.4568 267.562 62.3252 262.422C59.1937 257.195 57.628 251.241 57.628 244.558C57.628 237.876 59.1043 231.964 62.0568 226.823C65.0988 221.683 69.2146 217.656 74.4039 214.743C79.6827 211.744 85.5878 210.245 92.1191 210.245C98.74 210.245 104.6 211.702 109.7 214.614C114.889 217.442 118.96 221.469 121.913 226.695C124.866 231.835 126.342 237.79 126.342 244.558C126.342 244.987 126.297 245.458 126.208 245.972C126.208 246.4 126.208 246.871 126.208 247.386H64.8752V240.574H121.108L117.35 243.273C117.35 238.39 116.231 234.063 113.995 230.293C111.848 226.438 108.895 223.439 105.137 221.297C101.379 219.155 97.04 218.084 92.1191 218.084C87.2877 218.084 82.9483 219.155 79.1011 221.297C75.2539 223.439 72.2565 226.438 70.1092 230.293C67.9619 234.149 66.8883 238.561 66.8883 243.53V244.944C66.8883 250.084 68.0514 254.625 70.3777 258.566C72.7934 262.422 76.1038 265.463 80.309 267.691C84.6036 269.833 89.4798 270.904 94.9375 270.904C99.2321 270.904 103.214 270.175 106.882 268.719C110.64 267.262 113.861 265.035 116.545 262.036L121.913 267.948C118.781 271.546 114.845 274.288 110.103 276.173C105.451 278.058 100.306 279 94.6691 279ZM174.623 278.357L143.353 210.888H153.284L182.004 273.474H177.307L206.43 210.888H215.824L184.42 278.357H174.623ZM241.322 278.357V210.888H250.851V278.357H241.322ZM246.154 195.98C244.186 195.98 242.53 195.337 241.188 194.052C239.846 192.767 239.175 191.225 239.175 189.426C239.175 187.627 239.846 186.127 241.188 184.928C242.53 183.643 244.186 183 246.154 183C248.122 183 249.777 183.6 251.119 184.799C252.462 185.999 253.133 187.498 253.133 189.297C253.133 191.182 252.462 192.767 251.119 194.052C249.867 195.337 248.212 195.98 246.154 195.98ZM319.371 279C312.035 279 305.593 277.543 300.045 274.631C294.498 271.632 290.159 267.562 287.027 262.422C283.895 257.195 282.33 251.241 282.33 244.558C282.33 237.876 283.806 231.964 286.759 226.823C289.8 221.683 293.917 217.656 299.106 214.743C304.385 211.744 310.29 210.245 316.821 210.245C323.442 210.245 329.302 211.702 334.402 214.614C339.591 217.442 343.662 221.469 346.615 226.695C349.567 231.835 351.044 237.79 351.044 244.558C351.044 244.987 350.999 245.458 350.909 245.972C350.909 246.4 350.909 246.871 350.909 247.386H289.577V240.574H345.81L342.052 243.273C342.052 238.39 340.933 234.063 338.697 230.293C336.549 226.438 333.597 223.439 329.839 221.297C326.081 219.155 321.742 218.084 316.821 218.084C311.99 218.084 307.65 219.155 303.803 221.297C299.956 223.439 296.958 226.438 294.811 230.293C292.664 234.149 291.59 238.561 291.59 243.53V244.944C291.59 250.084 292.753 254.625 295.079 258.566C297.495 262.422 300.805 265.463 305.011 267.691C309.305 269.833 314.182 270.904 319.639 270.904C323.934 270.904 327.915 270.175 331.584 268.719C335.342 267.262 338.562 265.035 341.247 262.036L346.615 267.948C343.483 271.546 339.547 274.288 334.805 276.173C330.153 278.058 325.008 279 319.371 279ZM395.567 278.357L368.994 210.888H378.12L402.277 273.474H398.117L422.945 210.888H431.132L455.691 273.474H451.531L476.091 210.888H484.814L458.107 278.357H449.115L425.495 219.498H428.313L404.559 278.357H395.567ZM529.377 279C523.561 279 518.059 278.229 512.87 276.687C507.681 275.059 503.609 273.045 500.657 270.647L504.952 263.45C507.815 265.506 511.483 267.305 515.956 268.847C520.43 270.304 525.128 271.032 530.048 271.032C536.759 271.032 541.59 270.047 544.543 268.076C547.495 266.02 548.971 263.321 548.971 259.98C548.971 257.495 548.121 255.568 546.421 254.197C544.811 252.74 542.664 251.669 539.979 250.984C537.295 250.213 534.298 249.57 530.988 249.056C527.678 248.542 524.366 247.942 521.056 247.257C517.835 246.572 514.883 245.586 512.199 244.301C509.515 242.93 507.322 241.088 505.623 238.775C504.012 236.462 503.207 233.378 503.207 229.522C503.207 225.838 504.28 222.539 506.428 219.627C508.575 216.714 511.707 214.443 515.822 212.815C520.028 211.102 525.128 210.245 531.122 210.245C535.685 210.245 540.248 210.845 544.811 212.044C549.374 213.158 553.132 214.657 556.084 216.542L551.924 223.867C548.792 221.811 545.437 220.355 541.858 219.498C538.28 218.556 534.7 218.084 531.122 218.084C524.769 218.084 520.072 219.155 517.03 221.297C514.078 223.353 512.601 226.009 512.601 229.265C512.601 231.835 513.407 233.849 515.017 235.305C516.717 236.762 518.909 237.918 521.593 238.775C524.366 239.546 527.364 240.189 530.585 240.703C533.895 241.217 537.161 241.859 540.382 242.631C543.692 243.316 546.69 244.301 549.374 245.586C552.147 246.786 554.34 248.542 555.95 250.855C557.65 253.083 558.5 256.039 558.5 259.723C558.5 263.664 557.337 267.091 555.011 270.004C552.774 272.831 549.463 275.059 545.079 276.687C540.785 278.229 535.551 279 529.377 279Z" fill="black"/>
</svg>
