<svg width="268" height="302" viewBox="0 0 268 302" fill="none" xmlns="http://www.w3.org/2000/svg">
<path fill-rule="evenodd" clip-rule="evenodd" d="M182.483 225.642C180.729 240.121 171.955 251.717 158.365 257.524C150.797 260.758 140.635 262.505 132.592 261.956C120.044 261.477 108.256 258.425 97.3901 252.847C93.5082 250.853 87.7214 246.872 83.2779 243.143C82.1525 242.201 82.0188 241.597 82.7635 240.54C83.1656 239.934 83.907 238.84 85.5457 236.439C87.9225 232.957 88.219 232.52 88.4863 232.112C89.2467 230.945 90.4823 230.843 91.701 231.802C91.829 231.902 91.829 231.902 91.9256 231.977C92.1256 232.132 92.1256 232.132 92.5973 232.499C93.0747 232.871 93.3577 233.09 93.4723 233.176C105.191 242.355 118.839 247.648 132.618 248.177C151.788 247.916 165.573 239.296 168.043 226.061C170.759 211.495 159.325 198.912 136.953 191.899C129.957 189.706 112.272 182.627 109.011 180.714C93.6981 171.73 86.5387 159.961 87.5563 145.426C89.1153 125.277 107.82 110.249 131.455 110.148C142.025 110.127 152.572 112.323 162.704 116.593C166.292 118.105 172.698 121.591 174.909 123.242C176.183 124.177 176.435 125.268 175.704 126.444C175.297 127.126 174.623 128.207 173.202 130.461L173.186 130.486C171.316 133.455 171.258 133.548 170.829 134.242C170.087 135.371 169.216 135.476 167.879 134.628C157.036 127.344 145.017 123.68 131.798 123.415C115.34 123.741 103.005 133.535 102.194 146.878C101.978 158.929 111.017 167.727 130.541 174.435C170.171 187.17 185.337 202.101 182.483 225.642ZM133.54 17.6042C159.341 17.6042 180.373 42.0895 181.357 72.7399H85.7243C86.7083 42.0895 107.739 17.6042 133.54 17.6042ZM267.071 78.5024C267.071 75.3198 264.508 72.7399 261.347 72.7399H199.361C197.84 32.2701 168.953 0 133.54 0C98.1281 0 69.241 32.2701 67.7202 72.7399L5.64532 72.7411C2.53287 72.7976 0.026963 75.356 0.026963 78.5024C0.026963 78.6529 0.0325948 78.8022 0.0438054 78.9492H0L8.84875 274.009C8.84987 274.552 8.87007 275.1 8.91053 275.65C8.91953 275.775 8.92963 275.898 8.93974 276.021L8.95884 276.433L8.98016 276.455C10.3247 290.028 20.1753 300.96 33.5697 301.465L33.6001 301.494H230.507C230.6 301.495 230.693 301.496 230.786 301.496C230.879 301.496 230.973 301.495 231.066 301.494H231.485L231.494 301.486C245.122 301.114 256.161 290.029 257.327 276.288L257.334 276.282L257.343 276.097C257.354 275.952 257.364 275.809 257.373 275.664C257.395 275.318 257.409 274.973 257.415 274.63L267.07 78.8H267.063C267.069 78.7016 267.071 78.602 267.071 78.5024Z" fill="white"/>
</svg>
